<?xml version="1.0" encoding="UTF-8" standalone="no"?><!DOCTYPE svg PUBLIC "-//W3C//DTD SVG 1.1//EN" "http://www.w3.org/Graphics/SVG/1.1/DTD/svg11.dtd"><svg width="100%" height="100%" viewBox="0 0 540 540" version="1.1" xmlns="http://www.w3.org/2000/svg" xmlns:xlink="http://www.w3.org/1999/xlink" xml:space="preserve" xmlns:serif="http://www.serif.com/" style="fill-rule:evenodd;clip-rule:evenodd;stroke-linecap:round;stroke-linejoin:round;stroke-miterlimit:1.5;"><path d="M367.794,446.089c19.372,-0 79.3,60.327 65.279,60.327l-326.146,-0c-41.395,-0 -75.002,-27.608 -75.002,-69.003l-0,-293.58c-0,-41.395 33.607,-75.002 75.002,-75.002l326.146,-0c41.395,-0 75.002,33.607 75.002,75.002l0,274.526c0,7.063 -5.675,12.815 -12.737,12.91c-17.489,0.235 -46.798,0.629 -46.798,0.629l0.089,-227.939c-0,-38.182 -32.181,-69.181 -71.818,-69.181l-213.622,0c-39.637,0 -71.818,30.999 -71.818,69.181l0,172.95c0,38.181 32.181,69.18 71.818,69.18l204.605,-0Z" style="fill:#fff;"/><ellipse cx="356.526" cy="246.976" rx="42.924" ry="51.474" style="fill:#fff;"/><ellipse cx="183.474" cy="246.976" rx="42.924" ry="51.474" style="fill:#fff;"/><path d="M335.447,347.562c-15.36,27.004 -29.856,33.482 -66.631,33.482c-36.775,-0 -47.769,-7.556 -66.632,-33.482" style="fill:none;stroke:#fff;stroke-width:30.04px;"/><g><ellipse cx="393.638" cy="68.831" rx="40" ry="57.631" style="fill:#fff;"/><ellipse cx="166.271" cy="68.831" rx="40" ry="57.631" style="fill:#fff;"/></g></svg>